<?xml version="1.0" encoding="UTF-8" standalone="no"?>
<!-- Created with Inkscape (http://www.inkscape.org/) -->

<svg
   xmlns:dc="http://purl.org/dc/elements/1.1/"
   xmlns:cc="http://creativecommons.org/ns#"
   xmlns:rdf="http://www.w3.org/1999/02/22-rdf-syntax-ns#"
   xmlns:svg="http://www.w3.org/2000/svg"
   xmlns="http://www.w3.org/2000/svg"
   xmlns:sodipodi="http://sodipodi.sourceforge.net/DTD/sodipodi-0.dtd"
   xmlns:inkscape="http://www.inkscape.org/namespaces/inkscape"
   version="1.1"
   id="svg29"
   xml:space="preserve"
   width="162.37199"
   height="177"
   viewBox="0 0 162.372 177.00001"
   sodipodi:docname="no-cropped.svg"
   inkscape:version="0.92.4 (33fec40, 2019-01-16)"><metadata
     id="metadata35"><rdf:RDF><cc:Work
         rdf:about=""><dc:format>image/svg+xml</dc:format><dc:type
           rdf:resource="http://purl.org/dc/dcmitype/StillImage" /><dc:title></dc:title></cc:Work></rdf:RDF></metadata><defs
     id="defs33"><linearGradient
       x1="0"
       y1="0"
       x2="1"
       y2="0"
       gradientUnits="userSpaceOnUse"
       gradientTransform="matrix(5.8602128,0,0,-5.8602128,108.73731,121.98527)"
       spreadMethod="pad"
       id="linearGradient73"><stop
         style="stop-opacity:1;stop-color:#89898a"
         offset="0"
         id="stop51" /><stop
         style="stop-opacity:1;stop-color:#89898a"
         offset="0.0451935"
         id="stop53" /><stop
         style="stop-opacity:1;stop-color:#3c3c3d"
         offset="0.151289"
         id="stop55" /><stop
         style="stop-opacity:1;stop-color:#717273"
         offset="0.18327026"
         id="stop57" /><stop
         style="stop-opacity:1;stop-color:#717273"
         offset="0.310469"
         id="stop59" /><stop
         style="stop-opacity:1;stop-color:#717273"
         offset="0.37044092"
         id="stop61" /><stop
         style="stop-opacity:1;stop-color:#3c3c3d"
         offset="0.51123"
         id="stop63" /><stop
         style="stop-opacity:1;stop-color:#3c3c3d"
         offset="0.70026453"
         id="stop65" /><stop
         style="stop-opacity:1;stop-color:#e8e9ed"
         offset="0.747793"
         id="stop67" /><stop
         style="stop-opacity:1;stop-color:#9b9da0"
         offset="0.91922594"
         id="stop69" /><stop
         style="stop-opacity:1;stop-color:#9b9da0"
         offset="1"
         id="stop71" /></linearGradient><linearGradient
       x1="0"
       y1="0"
       x2="1"
       y2="0"
       gradientUnits="userSpaceOnUse"
       gradientTransform="matrix(4.3019094,0,0,0.1482086,109.59482,222.73283)"
       spreadMethod="pad"
       id="linearGradient111"><stop
         style="stop-opacity:1;stop-color:#89898a"
         offset="0"
         id="stop89" /><stop
         style="stop-opacity:1;stop-color:#89898a"
         offset="0.0451935"
         id="stop91" /><stop
         style="stop-opacity:1;stop-color:#3c3c3d"
         offset="0.151289"
         id="stop93" /><stop
         style="stop-opacity:1;stop-color:#717273"
         offset="0.18327026"
         id="stop95" /><stop
         style="stop-opacity:1;stop-color:#717273"
         offset="0.310469"
         id="stop97" /><stop
         style="stop-opacity:1;stop-color:#717273"
         offset="0.37044092"
         id="stop99" /><stop
         style="stop-opacity:1;stop-color:#3c3c3d"
         offset="0.51123"
         id="stop101" /><stop
         style="stop-opacity:1;stop-color:#3c3c3d"
         offset="0.70026453"
         id="stop103" /><stop
         style="stop-opacity:1;stop-color:#e8e9ed"
         offset="0.747793"
         id="stop105" /><stop
         style="stop-opacity:1;stop-color:#9b9da0"
         offset="0.91922594"
         id="stop107" /><stop
         style="stop-opacity:1;stop-color:#9b9da0"
         offset="1"
         id="stop109" /></linearGradient><linearGradient
       x1="0"
       y1="0"
       x2="1"
       y2="0"
       gradientUnits="userSpaceOnUse"
       gradientTransform="matrix(0,-117.77853,-117.77853,0,111.44759,217.40535)"
       spreadMethod="pad"
       id="linearGradient131"><stop
         style="stop-opacity:1;stop-color:#d60000"
         offset="0"
         id="stop127" /><stop
         style="stop-opacity:1;stop-color:#780000"
         offset="1"
         id="stop129" /></linearGradient><linearGradient
       x1="0"
       y1="0"
       x2="1"
       y2="0"
       gradientUnits="userSpaceOnUse"
       gradientTransform="matrix(0,121.779,-121.779,0,24.3931,128.2378)"
       spreadMethod="pad"
       id="linearGradient141"><stop
         style="stop-opacity:1;stop-color:#d4d4d4"
         offset="0"
         id="stop137" /><stop
         style="stop-opacity:1;stop-color:#919191"
         offset="1"
         id="stop139" /></linearGradient><clipPath
       clipPathUnits="userSpaceOnUse"
       id="clipPath155"><path
         d="M 0,248.016 H 223.924 V 0 H 0 Z"
         id="path153"
         inkscape:connector-curvature="0" /></clipPath><linearGradient
       x1="0"
       y1="0"
       x2="1"
       y2="0"
       gradientUnits="userSpaceOnUse"
       gradientTransform="matrix(16.875,0,0,-16.875,90.766769,158.2496)"
       spreadMethod="pad"
       id="linearGradient179"><stop
         style="stop-opacity:1;stop-color:#ebebeb"
         offset="0"
         id="stop175" /><stop
         style="stop-opacity:1;stop-color:#d9d9d9"
         offset="1"
         id="stop177" /></linearGradient><linearGradient
       x1="0"
       y1="0"
       x2="1"
       y2="0"
       gradientUnits="userSpaceOnUse"
       gradientTransform="matrix(18.84375,0,0,-18.84375,112.54021,158.26132)"
       spreadMethod="pad"
       id="linearGradient197"><stop
         style="stop-opacity:1;stop-color:#ebebeb"
         offset="0"
         id="stop193" /><stop
         style="stop-opacity:1;stop-color:#d9d9d9"
         offset="1"
         id="stop195" /></linearGradient><clipPath
       clipPathUnits="userSpaceOnUse"
       id="clipPath4712"><rect
         id="rect4714"
         width="121.779"
         height="132.75002"
         x="50.557899"
         y="-224.72029"
         style="fill:none;stroke:#000000;stroke-width:0.75"
         transform="scale(1,-1)" /></clipPath><clipPath
       clipPathUnits="userSpaceOnUse"
       id="clipPath4716"><rect
         id="rect4718"
         width="121.779"
         height="132.75002"
         x="50.557899"
         y="-224.72029"
         style="fill:none;stroke:#000000;stroke-width:0.75"
         transform="scale(1,-1)" /></clipPath><clipPath
       clipPathUnits="userSpaceOnUse"
       id="clipPath4720"><rect
         id="rect4722"
         width="121.779"
         height="132.75002"
         x="50.557899"
         y="-224.72029"
         style="fill:none;stroke:#000000;stroke-width:0.75"
         transform="scale(1,-1)" /></clipPath><clipPath
       clipPathUnits="userSpaceOnUse"
       id="clipPath4724"><rect
         id="rect4726"
         width="121.779"
         height="132.75002"
         x="-36.497002"
         y="-125.09349"
         style="fill:none;stroke:#000000;stroke-width:0.75"
         transform="scale(1,-1)" /></clipPath><clipPath
       clipPathUnits="userSpaceOnUse"
       id="clipPath4728"><rect
         id="rect4730"
         width="121.779"
         height="132.75002"
         x="-36.497002"
         y="-125.09349"
         style="fill:none;stroke:#000000;stroke-width:0.75"
         transform="scale(1,-1)" /></clipPath><clipPath
       clipPathUnits="userSpaceOnUse"
       id="clipPath4732"><rect
         id="rect4734"
         width="121.779"
         height="132.75002"
         x="50.557899"
         y="-224.72029"
         style="fill:none;stroke:#000000;stroke-width:0.75"
         transform="scale(1,-1)" /></clipPath><clipPath
       clipPathUnits="userSpaceOnUse"
       id="clipPath4736"><rect
         id="rect4738"
         width="121.779"
         height="132.75002"
         x="50.557899"
         y="-224.72029"
         style="fill:none;stroke:#000000;stroke-width:0.75"
         transform="scale(1,-1)" /></clipPath><clipPath
       clipPathUnits="userSpaceOnUse"
       id="clipPath4740"><rect
         id="rect4742"
         width="121.779"
         height="132.75002"
         x="50.557899"
         y="-224.72029"
         style="fill:none;stroke:#000000;stroke-width:0.75"
         transform="scale(1,-1)" /></clipPath></defs><sodipodi:namedview
     pagecolor="#ffffff"
     bordercolor="#666666"
     borderopacity="1"
     objecttolerance="10"
     gridtolerance="10"
     guidetolerance="10"
     inkscape:pageopacity="0"
     inkscape:pageshadow="2"
     inkscape:window-width="3840"
     inkscape:window-height="1963"
     id="namedview31"
     showgrid="false"
     inkscape:zoom="5.6568543"
     inkscape:cx="62.58054"
     inkscape:cy="92.692307"
     inkscape:window-x="0"
     inkscape:window-y="55"
     inkscape:window-maximized="1"
     inkscape:current-layer="g37"
     inkscape:snap-page="true" /><g
     id="g37"
     inkscape:groupmode="layer"
     inkscape:label="masterfile"
     transform="matrix(1.3333333,0,0,-1.3333333,-67.410532,207.96666)"><g
       id="g39"
       transform="translate(0,-68.745281)"
       clip-path="url(#clipPath4740)"><g
         id="g41"><g
           id="g47"><g
             id="g49"><path
               d="m 115.638,23.225 h -7.353 v 197.521 h 7.353 z"
               style="fill:url(#linearGradient73);stroke:none"
               id="path75"
               inkscape:connector-curvature="0" /></g></g></g></g><g
       id="g77"
       transform="translate(0,-68.745281)"
       clip-path="url(#clipPath4736)"><g
         id="g79"><g
           id="g85"><g
             id="g87"><path
               d="m 114.661,224.72 h -5.398 v -3.974 h 5.398 z"
               style="fill:url(#linearGradient111);stroke:none"
               id="path113"
               inkscape:connector-curvature="0" /></g></g></g></g><g
       id="g115"
       transform="translate(0,-68.745281)"
       clip-path="url(#clipPath4732)"><g
         id="g117"><g
           id="g123"><g
             id="g125"><path
               d="m 87.055,99.627 -34.497,34.496 v 48.786 l 34.497,34.496 h 48.785 l 34.497,-34.496 V 134.123 L 135.84,99.627 Z"
               style="fill:url(#linearGradient131);stroke:none"
               id="path133"
               inkscape:connector-curvature="0" /></g></g></g></g><g
       id="g135"
       transform="translate(87.0549,30.881519)"
       clip-path="url(#clipPath4728)"><path
         d="M 0,0 -34.497,34.497 V 83.282 L 0,117.779 H 48.785 L 83.282,83.282 V 34.497 L 48.785,0 Z"
         style="fill:none;stroke:url(#linearGradient141);stroke-width:4;stroke-linecap:butt;stroke-linejoin:miter;stroke-miterlimit:10;stroke-dasharray:none;stroke-opacity:1"
         id="path143"
         inkscape:connector-curvature="0" /></g><g
       id="g145"
       transform="translate(87.0549,30.881519)"
       clip-path="url(#clipPath4724)"><path
         d="M 0,0 -34.497,34.497 V 83.282 L 0,117.779 H 48.785 L 83.282,83.282 V 34.497 L 48.785,0 Z"
         style="fill:none;stroke:#808285;stroke-width:0.5;stroke-linecap:butt;stroke-linejoin:miter;stroke-miterlimit:10;stroke-dasharray:none;stroke-opacity:1"
         id="path147"
         inkscape:connector-curvature="0" /></g><g
       id="g149"
       transform="translate(0,-68.745281)"
       clip-path="url(#clipPath4720)"><g
         id="g151"
         clip-path="url(#clipPath155)"><g
           id="g157"
           transform="translate(113.7951,107.2581)"><path
             d="m 0,0 c 0,-1.012 -0.82,-1.832 -1.832,-1.832 -1.014,0 -1.834,0.82 -1.834,1.832 0,1.014 0.82,1.834 1.834,1.834 C -0.82,1.834 0,1.014 0,0"
             style="fill:#727171;fill-opacity:1;fill-rule:nonzero;stroke:none"
             id="path159"
             inkscape:connector-curvature="0" /></g><g
           id="g161"
           transform="translate(113.7951,210.1248)"><path
             d="m 0,0 c 0,-1.012 -0.82,-1.832 -1.832,-1.832 -1.014,0 -1.834,0.82 -1.834,1.832 0,1.014 0.82,1.834 1.834,1.834 C -0.82,1.834 0,1.014 0,0"
             style="fill:#727171;fill-opacity:1;fill-rule:nonzero;stroke:none"
             id="path163"
             inkscape:connector-curvature="0" /></g></g></g><g
       id="g165"
       transform="translate(0,-68.745281)"
       clip-path="url(#clipPath4716)"><g
         id="g167"><g
           id="g173"><path
             d="m 102.743,176.343 v -13.5 c 0,-2 0.094,-4.133 0.282,-6.398 v 0 c 0.187,-2.265 0.476,-4.797 0.867,-7.594 v 0 c -1.079,4.625 -2.321,8.977 -3.727,13.055 v 0 l -4.851,14.437 h -4.547 v -36.188 h 4.805 l -0.258,15.774 c 0,0.454 -0.004,0.86 -0.012,1.219 v 0 c -0.008,0.36 -0.02,0.664 -0.035,0.914 v 0 l -0.258,4.477 -0.258,3.679 c -0.015,0.204 -0.039,0.449 -0.07,0.739 v 0 c -0.032,0.289 -0.07,0.636 -0.117,1.042 v 0 c 0.094,-0.406 0.175,-0.765 0.246,-1.077 v 0 c 0.07,-0.313 0.121,-0.579 0.152,-0.797 v 0 c 0.375,-1.75 0.785,-3.422 1.231,-5.016 v 0 c 0.444,-1.594 0.918,-3.148 1.417,-4.664 v 0 l 5.462,-16.29 h 4.57 v 36.188 z"
             style="fill:url(#linearGradient179);stroke:none"
             id="path181"
             inkscape:connector-curvature="0" /></g></g></g><g
       id="g183"
       transform="translate(0,-68.745281)"
       clip-path="url(#clipPath4712)"><g
         id="g185"><g
           id="g191"><path
             d="m 114.649,172.781 c -1.406,-2.672 -2.109,-7.227 -2.109,-13.664 v 0 c 0,-7.219 0.711,-12.242 2.133,-15.071 v 0 c 1.438,-2.89 3.914,-4.335 7.43,-4.335 v 0 c 3.344,0 5.727,1.343 7.148,4.031 v 0 c 1.422,2.687 2.133,7.227 2.133,13.618 v 0 c 0,4.562 -0.219,8.03 -0.656,10.405 v 0 c -0.438,2.563 -1.141,4.539 -2.11,5.93 v 0 c -1.469,2.079 -3.719,3.117 -6.75,3.117 v 0 c -3.39,0 -5.797,-1.344 -7.219,-4.031 m 3.914,-25.711 c -0.593,2.047 -0.89,5.718 -0.89,11.016 v 0 c 0,5.75 0.281,9.578 0.844,11.484 v 0 c 0.578,1.891 1.734,2.836 3.468,2.836 v 0 c 1.735,0 2.884,-1.032 3.446,-3.094 v 0 c 0.563,-2.046 0.844,-6.203 0.844,-12.468 v 0 c 0,-4.844 -0.305,-8.165 -0.915,-9.962 v 0 c -0.609,-1.812 -1.734,-2.718 -3.375,-2.718 v 0 c -1.671,0 -2.812,0.968 -3.422,2.906"
             style="fill:url(#linearGradient197);stroke:none"
             id="path199"
             inkscape:connector-curvature="0" /></g></g></g></g></svg>