<svg version="1" xmlns="http://www.w3.org/2000/svg" width="2777.333" height="2777.333" viewBox="0 0 2083.000000 2083.000000"><path d="M484.9 535.4c-.2.2-4.7.7-9.9 1-9.3.7-39.1 4.3-42 5.1-.8.2-3.2.6-5.4 1-7.7 1.1-24.4 4.8-39.3 8.6-117.3 30-221.8 103.7-290.9 205.4-6.2 9-19.4 30.3-19.4 31.1 0 .2-1.1 2.1-2.3 4.2-5.6 8.8-18.1 34.4-27.7 56.7-9.6 22.3-21.6 62.5-27.4 92-3.9 19.6-3.9 20.1-5.6 34.5-.6 5.2-1.3 10.8-1.5 12.5-1.5 11.7-2 24-2 51.5 0 27.3.5 39.4 2.1 52.5.2 1.6.6 5.5.9 8.5 1.3 10.6 5.5 35.8 8 47.1 22.7 102.9 76.8 195.8 155 266.2 14.2 12.8 14.8 13.3 27 22.8 63.7 49.8 139.4 84 218 98.4 17 3.2 17.5 3.2 28 4.5 5 .6 10.6 1.2 12.5 1.5 1.9.2 7.3.8 12 1.2 11.1 1 1115.3 1 1128.9 0 19.6-1.5 41.1-4.5 59.6-8.2 78.7-15.9 151.2-49.5 214-99 6.6-5.2 13.4-10.7 15-12.2 1.7-1.6 5.9-5.3 9.5-8.4 12.1-10.6 33.4-32.5 48.9-50.4 3.1-3.6 15.2-19.1 20.4-26 2-2.8 4-5.5 4.4-6 4.4-5.6 20.7-31.2 26.4-41.2 1.1-1.8 2.9-5 4-7.1 4.5-7.8 17.9-35.2 22.4-45.7 16.5-38.6 29-82.3 34.9-122.5 1.5-10.5 3.6-28.7 4.3-37.5 1.5-19.4.6-87.5-1.2-90.5-.1-.3-.6-3.9-1-8-.3-4.1-.8-8.2-1-9-.2-.8-.7-3.5-1-6-.3-2.5-1.2-8.1-2-12.5s-1.7-9.6-2-11.5c-1.3-7.7-8.9-37.3-13.2-51-21.6-69.6-58.4-133.9-108.3-189-75.4-83.2-177.7-139.3-288-158-3.6-.6-7.6-1.3-9-1.5-1.4-.3-5-.7-8-1.1-3-.3-6.6-.7-8-1-1.4-.2-5.9-.6-10-1-4.1-.3-8.6-.9-10-1.2-2.6-.7-1119.4-1.5-1120.1-.8z"/></svg>